<svg width="1600" height="950" viewBox="0 0 1600 950" fill="none" xmlns="http://www.w3.org/2000/svg">
  <defs>
    <radialGradient id="goldGlow" cx="50%" cy="40%" r="55%">
      <stop offset="0%" stop-color="#d9ad55" stop-opacity="0.22"/>
      <stop offset="45%" stop-color="#d9ad55" stop-opacity="0.09"/>
      <stop offset="100%" stop-color="#020817" stop-opacity="0"/>
    </radialGradient>
    <linearGradient id="lineGold" x1="200" y1="100" x2="1400" y2="850">
      <stop stop-color="#f2d28b" stop-opacity="0.28"/>
      <stop offset="0.5" stop-color="#d9ad55" stop-opacity="0.14"/>
      <stop offset="1" stop-color="#ffffff" stop-opacity="0.04"/>
    </linearGradient>
    <filter id="blurSoft">
      <feGaussianBlur stdDeviation="2.5"/>
    </filter>
  </defs>

  <rect width="1600" height="950" fill="transparent"/>
  <ellipse cx="800" cy="430" rx="650" ry="370" fill="url(#goldGlow)"/>

  <g opacity="0.22" stroke="url(#lineGold)" stroke-width="2">
    <path d="M800 165V705"/>
    <path d="M610 265H990"/>
    <path d="M690 265L565 520"/>
    <path d="M690 265L815 520"/>
    <path d="M910 265L785 520"/>
    <path d="M910 265L1035 520"/>
    <path d="M520 520C565 585 770 585 815 520"/>
    <path d="M785 520C830 585 990 585 1035 520"/>
    <path d="M650 705H950"/>
    <path d="M590 760H1010"/>
  </g>

  <g opacity="0.12" stroke="#f2d28b" stroke-width="1.4" filter="url(#blurSoft)">
    <circle cx="800" cy="455" r="330"/>
    <circle cx="800" cy="455" r="250"/>
    <path d="M240 750C430 610 520 590 710 660C920 738 1055 660 1360 520"/>
    <path d="M225 210C460 315 590 300 760 230C1010 125 1175 195 1390 310"/>
  </g>

  <g opacity="0.16" fill="#f2d28b">
    <circle cx="415" cy="245" r="3"/>
    <circle cx="1195" cy="225" r="3"/>
    <circle cx="1280" cy="690" r="2.5"/>
    <circle cx="310" cy="650" r="2.5"/>
    <circle cx="980" cy="770" r="2"/>
    <circle cx="620" cy="135" r="2"/>
  </g>
</svg>
