<svg xmlns="http://www.w3.org/2000/svg" viewBox="0 0 100 100">
<rect width="100" height="100" fill="#ffffff"/>
<g stroke="#000000" fill="none" stroke-linecap="round" stroke-linejoin="round">
  <line x1="50" y1="17" x2="50" y2="82" stroke-width="5.5"/>
  <line x1="32" y1="82" x2="68" y2="82" stroke-width="5.5"/>
  <polygon points="50,7 44,18 56,18" fill="#000000" stroke="none"/>
  <path d="M22,36 Q36,29 50,30 Q64,29 78,36" stroke-width="5"/>
  <line x1="24" y1="37" x2="16" y2="57" stroke-width="4.5"/>
  <line x1="24" y1="37" x2="32" y2="57" stroke-width="4.5"/>
  <path d="M11,57 Q24,72 37,57" stroke-width="5"/>
  <line x1="9" y1="57" x2="39" y2="57" stroke-width="5"/>
  <line x1="76" y1="37" x2="68" y2="57" stroke-width="4.5"/>
  <line x1="76" y1="37" x2="84" y2="57" stroke-width="4.5"/>
  <path d="M63,57 Q76,72 89,57" stroke-width="5"/>
  <line x1="61" y1="57" x2="91" y2="57" stroke-width="5"/>
  <circle cx="23" cy="35" r="5" fill="#000000" stroke="none"/>
  <circle cx="77" cy="35" r="5" fill="#000000" stroke="none"/>
</g>
</svg>